<svg id="noodle_x5F_box" enable-background="new 0 0 300 300" height="512" viewBox="0 0 300 300" width="512" xmlns="http://www.w3.org/2000/svg"><circle cx="115" cy="124" fill="#edebdc" r="90"/><path d="m191.243 262h-104.749l-15.318-111.209h135.384z" fill="#b5a19c"/><path d="m191.242 266h-104.748c-1.998 0-3.689-1.477-3.963-3.453l-15.318-111.207c-.158-1.145.188-2.305.947-3.176s1.859-1.371 3.016-1.371h135.385c1.156 0 2.256.5 3.016 1.371s1.105 2.031.947 3.176l-15.318 111.207c-.274 1.976-1.966 3.453-3.964 3.453zm-101.262-8h97.775l14.217-103.207h-126.208z" fill="#4c241d"/><path d="m228.322 191.055c-1.469 0-2.881-.809-3.582-2.211l-19.34-38.68c-.988-1.977-.188-4.379 1.789-5.367 1.98-.984 4.381-.188 5.367 1.789l19.34 38.68c.988 1.977.188 4.379-1.789 5.367-.574.285-1.185.422-1.785.422z" fill="#4c241d"/><path d="m205 158h-132c0-19.882 16.118-36 36-36h60c19.882 0 36 16.118 36 36z" fill="#fff"/><path d="m205 162h-132c-2.209 0-4-1.789-4-4 0-22.055 17.943-40 40-40h60c22.057 0 40 17.945 40 40 0 2.211-1.791 4-4 4zm-127.752-8h123.504c-1.977-15.762-15.463-28-31.752-28h-60c-16.289 0-29.775 12.238-31.752 28z" fill="#4c241d"/><path d="m44.578 191.055c-.725 0-1.457-.195-2.115-.609-1.875-1.168-2.443-3.637-1.273-5.512l24.176-38.68c1.172-1.875 3.641-2.449 5.512-1.27 1.875 1.168 2.443 3.637 1.273 5.512l-24.176 38.68c-.76 1.215-2.063 1.879-3.397 1.879z" fill="#4c241d"/><path d="m177.572 190h-77.407l-31.407-40h140.22z" fill="#edebdc"/><g fill="#4c241d"><path d="m177.572 194h-77.408c-1.229 0-2.389-.562-3.146-1.531l-31.406-40c-.945-1.203-1.121-2.84-.451-4.219.67-1.375 2.066-2.25 3.598-2.25h140.221c1.531 0 2.928.875 3.598 2.25.67 1.379.494 3.016-.451 4.219l-31.406 40c-.76.969-1.92 1.531-3.149 1.531zm-75.463-8h73.518l25.125-32h-123.768z"/><path d="m117.105 104.023c-.762 0-1.533-.219-2.215-.672-1.838-1.227-2.334-3.711-1.109-5.547l4.545-6.816c1.916-2.875 1.533-6.734-.91-9.18-5.953-5.953-5.953-15.645.002-21.598 2.443-2.441 2.824-6.301.908-9.176l-4.545-6.816c-1.225-1.836-.729-4.32 1.109-5.547s4.32-.73 5.547 1.109l4.545 6.816c4.023 6.039 3.221 14.145-1.908 19.27-2.836 2.836-2.836 7.449 0 10.285 5.129 5.133 5.932 13.234 1.908 19.273l-4.545 6.816c-.771 1.158-2.039 1.783-3.332 1.783z"/><path d="m146.117 104.023c-.762 0-1.533-.219-2.215-.672-1.838-1.227-2.334-3.711-1.109-5.547l4.545-6.816c1.916-2.875 1.533-6.734-.91-9.18-5.955-5.953-5.955-15.645 0-21.598 2.443-2.441 2.826-6.301.91-9.176l-4.545-6.816c-1.225-1.836-.729-4.32 1.109-5.547 1.834-1.227 4.318-.73 5.547 1.109l4.545 6.816c4.025 6.039 3.221 14.145-1.912 19.27-1.371 1.375-2.127 3.199-2.127 5.141 0 1.945.756 3.77 2.129 5.145 5.131 5.129 5.934 13.234 1.91 19.273l-4.545 6.816c-.771 1.157-2.039 1.782-3.332 1.782z"/><path d="m198.527 133.938c-1.23 0-2.443-.566-3.227-1.633-1.309-1.777-.926-4.281.854-5.59l72.477-53.258c1.783-1.309 4.285-.926 5.592.855 1.309 1.777.926 4.281-.854 5.59l-72.477 53.258c-.714.524-1.542.778-2.365.778z"/></g><path d="m101 134c-1.023 0-2.047-.391-2.828-1.172l-8-8c-1.562-1.562-1.562-4.094 0-5.656s4.094-1.562 5.656 0l8 8c1.562 1.562 1.562 4.094 0 5.656-.781.781-1.805 1.172-2.828 1.172z" fill="#e66353"/><path d="m121 142c-1.676 0-3.236-1.059-3.795-2.734-.699-2.098.434-4.363 2.529-5.059l12-4c2.107-.703 4.363.434 5.061 2.527.699 2.098-.434 4.363-2.529 5.059l-12 4c-.42.141-.848.207-1.266.207z" fill="#ffce56"/><path d="m161 134c-1.023 0-2.047-.391-2.828-1.172l-8-8c-1.562-1.562-1.562-4.094 0-5.656s4.094-1.562 5.656 0l8 8c1.562 1.562 1.562 4.094 0 5.656-.781.781-1.805 1.172-2.828 1.172z" fill="#a9ba5a"/><path d="m176.996 142c-.814 0-1.635-.246-2.344-.762-1.789-1.297-2.188-3.797-.891-5.586l6.947-9.578c1.303-1.789 3.803-2.188 5.586-.891 1.789 1.297 2.188 3.797.891 5.586l-6.947 9.578c-.783 1.079-2.004 1.653-3.242 1.653z" fill="#fc8c29"/><path d="m160.625 137.867c-.939 0-1.885-.328-2.645-1-1.656-1.461-1.814-3.988-.354-5.648l72.527-82.195c1.463-1.652 3.99-1.812 5.646-.352s1.814 3.988.354 5.648l-72.527 82.195c-.79.895-1.894 1.352-3.001 1.352z" fill="#4c241d"/><circle cx="139" cy="224" fill="#fff" r="18"/><path d="m139 246c-12.131 0-22-9.871-22-22s9.869-22 22-22 22 9.871 22 22-9.869 22-22 22zm0-36c-7.719 0-14 6.281-14 14s6.281 14 14 14 14-6.281 14-14-6.281-14-14-14z" fill="#4c241d"/></svg>