<svg id="eggs_x26_bacon" enable-background="new 0 0 300 300" height="512" viewBox="0 0 300 300" width="512" xmlns="http://www.w3.org/2000/svg"><circle cx="183.984" cy="118.985" fill="#edebdc" r="90"/><path d="m82.171 251.244s53.742 32.544 91.234 3.857 96.58-4.325 96.58-4.325l-.163-65.355s-59.088-24.361-96.58 4.325-91.234-3.857-91.234-3.857z" fill="#e66353"/><path d="m136.34 271.015c-28.766 0-54.672-15.398-56.238-16.348-1.195-.723-1.926-2.016-1.93-3.412l-.164-65.355c-.004-1.445.773-2.779 2.031-3.49 1.25-.711 2.797-.689 4.039.057.52.312 51.883 30.768 86.734 4.104 38.871-29.734 98.035-5.877 100.531-4.846 1.496.615 2.473 2.07 2.477 3.688l.164 65.355c.004 1.336-.66 2.584-1.77 3.33-1.109.742-2.52.881-3.754.379-.57-.236-57.434-23.125-92.625 3.801-12.366 9.465-26.233 12.737-39.495 12.737zm-50.176-22.114c9.688 5.238 53.781 26.766 84.812 3.023 32.434-24.822 79.023-12.307 94.992-6.885l-.141-56.848c-11.352-4.053-59.156-18.988-90.156 4.732-32.023 24.498-74.059 7.5-89.648-.312z" fill="#4c241d"/><path d="m82.008 230.313s53.742 32.544 91.234 3.857 96.58-4.325 96.58-4.325v-22.212s-59.088-24.361-96.58 4.325-91.234-3.857-91.234-3.857z" fill="#ffded5"/><path d="m136.18 250.083c-28.77 0-54.676-15.398-56.242-16.348-1.199-.725-1.93-2.023-1.93-3.422v-22.213c0-1.443.777-2.773 2.035-3.482 1.258-.717 2.797-.689 4.035.059.52.312 51.875 30.773 86.734 4.105 38.879-29.748 98.031-5.877 100.531-4.846 1.5.617 2.477 2.076 2.477 3.697v22.211c0 1.334-.668 2.58-1.773 3.322-1.113.74-2.516.879-3.75.377-.57-.234-57.434-23.123-92.625 3.803-12.367 9.464-26.238 12.737-39.492 12.737zm-50.172-22.109c9.699 5.242 53.793 26.748 84.805 3.02 32.453-24.832 79.051-12.297 95.008-6.881v-13.709c-11.359-4.061-59.152-18.99-90.148 4.732-32.031 24.51-74.09 7.486-89.664-.32v13.158z" fill="#4c241d"/><circle cx="115.766" cy="115.272" fill="#fff" r="73.524"/><path d="m115.766 192.796c-42.746 0-77.523-34.777-77.523-77.523 0-42.748 34.777-77.525 77.523-77.525s77.523 34.777 77.523 77.525c0 42.746-34.777 77.523-77.523 77.523zm0-147.049c-38.336 0-69.523 31.189-69.523 69.525s31.188 69.523 69.523 69.523 69.523-31.188 69.523-69.523-31.187-69.525-69.523-69.525z" fill="#4c241d"/><circle cx="109.639" cy="109.145" fill="#ffce56" r="30.635"/><path d="m109.641 143.78c-19.098 0-34.637-15.537-34.637-34.635s15.539-34.635 34.637-34.635 34.633 15.537 34.633 34.635-15.536 34.635-34.633 34.635zm0-61.269c-14.688 0-26.637 11.949-26.637 26.635s11.949 26.635 26.637 26.635c14.684 0 26.633-11.949 26.633-26.635s-11.95-26.635-26.633-26.635z" fill="#4c241d"/><path d="m126.973 113.146c-2.211 0-4-1.791-4-4 0-7.352-5.98-13.334-13.332-13.334-2.211 0-4-1.791-4-4s1.789-4 4-4c11.762 0 21.332 9.57 21.332 21.334 0 2.208-1.789 4-4 4z" fill="#fff"/><path d="m30.178 214.225s53.79 32.543 91.314 3.857 96.665-4.326 96.665-4.326l-.163-65.355s-59.14-24.361-96.665 4.326-91.314-3.857-91.314-3.857z" fill="#e66353"/><path d="m84.398 233.995c-28.793 0-54.719-15.398-56.289-16.348-1.195-.723-1.926-2.016-1.93-3.412l-.164-65.355c-.004-1.443.773-2.777 2.031-3.49 1.25-.715 2.801-.689 4.035.057.516.311 51.926 30.768 86.816 4.104 38.91-29.74 98.113-5.875 100.621-4.848 1.496.617 2.473 2.072 2.477 3.689l.16 65.355c.004 1.336-.66 2.584-1.77 3.33-1.113.744-2.516.881-3.754.379-.574-.238-57.484-23.133-92.711 3.805-12.377 9.463-26.256 12.734-39.522 12.734zm-50.226-22.113c9.691 5.238 53.836 26.764 84.891 3.023 32.477-24.822 79.098-12.301 95.078-6.883l-.137-56.848c-11.352-4.053-59.211-18.992-90.246 4.73-32.055 24.506-74.129 7.492-89.727-.314z" fill="#4c241d"/><path d="m30.015 193.294s53.79 32.543 91.314 3.857 96.665-4.326 96.665-4.326v-22.212s-59.14-24.361-96.665 4.326-91.314-3.857-91.314-3.857z" fill="#ffded5"/><path d="m84.234 213.063c-28.793 0-54.719-15.398-56.289-16.348-1.199-.725-1.93-2.021-1.93-3.422v-22.211c0-1.443.777-2.773 2.035-3.482 1.254-.715 2.801-.688 4.031.059.516.312 51.926 30.777 86.816 4.102 38.91-29.732 98.113-5.875 100.617-4.846 1.5.617 2.477 2.078 2.477 3.699v22.211c0 1.334-.664 2.58-1.773 3.322-1.113.742-2.516.879-3.75.377-.57-.238-57.492-23.123-92.711 3.805-12.378 9.463-26.257 12.734-39.523 12.734zm-50.218-22.111c9.707 5.246 53.844 26.76 84.883 3.021 32.48-24.834 79.129-12.295 95.094-6.879v-13.709c-11.363-4.062-59.211-18.99-90.234 4.73-32.062 24.51-74.16 7.486-89.742-.322v13.159z" fill="#4c241d"/></svg>