<svg id="pizza" enable-background="new 0 0 300 300" height="512" viewBox="0 0 300 300" width="512" xmlns="http://www.w3.org/2000/svg"><circle cx="181.111" cy="121.076" fill="#edebdc" r="90"/><path d="m71.552 213.742c-.05-31.487 11.928-62.989 35.951-87.012 24.895-24.895 57.818-36.745 90.435-35.787-.423-.796 4.129-7.948 8.032-13.822 3.264-4.912 3.654-11.183 1.016-16.458-2.651-5.302-7.956-8.827-13.878-9.092-42.796-1.915-79.9 13.944-113.36 47.404-27.969 27.969-43.544 63.618-46.782 100.158-.663 7.482 2.946 14.71 9.168 18.919 7.296 4.935 16.901 4.776 24.029-.399z" fill="#bf7e68"/><path d="m53.859 225.631c-4.877 0-9.756-1.418-13.967-4.266-7.514-5.082-11.695-13.736-10.91-22.584 3.428-38.699 20.451-75.148 47.938-102.633 34.633-34.639 72.705-50.557 116.365-48.572 7.336.326 13.957 4.656 17.279 11.299 3.266 6.535 2.781 14.375-1.264 20.461-5.543 8.344-7.002 11.137-7.381 11.98-.057.607-.252 1.203-.586 1.738-.75 1.209-2.088 1.99-3.514 1.887-33.158-.975-64.193 11.322-87.49 34.617-22.479 22.48-34.828 52.375-34.777 84.178.002 1.283-.611 2.49-1.65 3.244l-5.391 3.912c-4.345 3.155-9.497 4.739-14.652 4.739zm132.383-170.213c-38.527 0-72.498 15.219-103.666 46.387-26.16 26.16-42.363 60.852-45.625 97.684-.529 5.953 2.316 11.797 7.424 15.252 5.883 3.979 13.691 3.846 19.438-.322l3.754-2.725c.469-33.176 13.6-64.281 37.107-87.791 24.195-24.193 56.328-37.439 90.506-37.01 1.268-2.455 3.564-6.123 7.457-11.984 2.465-3.707 2.76-8.479.771-12.455-2.025-4.049-6.041-6.688-10.479-6.885-2.243-.1-4.474-.151-6.687-.151zm15.252 33.697c.002 0 .002 0 .002.002 0-.002 0-.002-.002-.002zm-.004-.008c.002 0 .002.002.002.002s0-.002-.002-.002zm-.004-.007c.002 0 .002.002.002.002s0-.002-.002-.002zm-.004-.008.002.002zm-.003-.008.002.002zm-.004-.008.002.002z" fill="#4c241d"/><path d="m107.503 126.731c-24.023 24.023-36 55.525-35.951 87.012l1.368-1.12c104.423 60.328 180.802 51.842 180.802 51.842 4.243-63.649-47.466-157.863-55.785-173.52-32.616-.959-65.539 10.891-90.434 35.786z" fill="#ffce56"/><path d="m242.545 268.924c-25.113 0-88.459-5.375-169.354-51.533-1.049.473-2.273.475-3.348-.031-1.396-.66-2.289-2.066-2.291-3.611-.055-33.943 13.129-65.852 37.121-89.846 24.871-24.867 58.037-38.01 93.381-36.957 1.438.041 2.74.852 3.416 2.121l1.006 1.889c38.867 72.734 57.969 132.824 55.236 173.775-.129 1.934-1.623 3.496-3.549 3.709-.679.076-4.696.484-11.618.484zm-166.928-59.363c89.422 51.459 158.527 51.848 174.289 51.146.943-28.293-8.227-79.373-54.395-165.812-32.105-.26-62.424 11.912-85.182 34.664-21.491 21.494-33.723 49.765-34.712 80.002z" fill="#4c241d"/><circle cx="206.804" cy="222.275" fill="#f53e28" r="21.003"/><path d="m206.803 247.266c-6.402 0-12.805-2.436-17.68-7.311-9.748-9.75-9.748-25.611 0-35.359 4.723-4.723 11.002-7.324 17.68-7.324 6.68 0 12.959 2.602 17.68 7.324 4.723 4.721 7.324 11 7.324 17.68 0 6.678-2.602 12.957-7.324 17.68-4.874 4.874-11.276 7.31-17.68 7.31zm-12.024-12.967c6.631 6.629 17.42 6.629 24.047 0 3.211-3.213 4.98-7.482 4.98-12.023 0-4.543-1.77-8.812-4.98-12.023s-7.48-4.98-12.023-4.98c-4.541 0-8.811 1.77-12.023 4.98-6.63 6.628-6.63 17.415-.001 24.046z" fill="#4c241d"/><circle cx="117.938" cy="192.328" fill="#f53e28" r="18.121"/><path d="m117.938 214.439c-5.666 0-11.33-2.156-15.643-6.469-8.623-8.625-8.623-22.66 0-31.285 8.627-8.627 22.662-8.623 31.285 0 8.623 8.625 8.623 22.66 0 31.285-4.312 4.313-9.978 6.469-15.642 6.469zm-9.987-12.125c5.508 5.504 14.465 5.504 19.973 0 5.504-5.506 5.504-14.467 0-19.973-5.508-5.504-14.465-5.504-19.973 0-5.504 5.507-5.504 14.468 0 19.973z" fill="#4c241d"/><circle cx="169.101" cy="133.652" fill="#f53e28" r="25.139"/><path d="m169.102 162.777c-7.463 0-14.926-2.84-20.605-8.521-11.361-11.361-11.361-29.846 0-41.207 11.357-11.361 29.848-11.365 41.209 0 11.361 11.361 11.361 29.846 0 41.207-5.681 5.682-13.143 8.521-20.604 8.521zm0-50.254c-5.414 0-10.828 2.061-14.949 6.182-8.242 8.242-8.242 21.652 0 29.895 8.242 8.244 21.654 8.244 29.896 0 8.242-8.242 8.242-21.652 0-29.895-4.121-4.121-9.535-6.182-14.947-6.182z" fill="#4c241d"/><g fill="#a9ba5a"><path d="m223.111 191.078c-.418 0-.846-.066-1.266-.207l-12-4c-2.096-.699-3.229-2.965-2.529-5.061.699-2.092 2.953-3.232 5.061-2.529l12 4c2.096.699 3.229 2.965 2.529 5.061-.558 1.676-2.119 2.736-3.795 2.736z"/><path d="m163.111 211.078c-.418 0-.846-.066-1.266-.207-2.096-.699-3.229-2.965-2.529-5.061l4-12c.697-2.094 2.955-3.238 5.061-2.529 2.096.699 3.229 2.965 2.529 5.061l-4 12c-.558 1.676-2.119 2.736-3.795 2.736z"/><path d="m145.111 233.078c-.418 0-.846-.066-1.266-.207l-12-4c-2.096-.699-3.229-2.965-2.529-5.061.697-2.094 2.955-3.23 5.061-2.529l12 4c2.096.699 3.229 2.965 2.529 5.061-.558 1.676-2.119 2.736-3.795 2.736z"/><path d="m227.111 255.078c-1.676 0-3.236-1.061-3.795-2.736-.699-2.096.434-4.361 2.529-5.061l12-4c2.107-.707 4.361.436 5.061 2.529.699 2.096-.434 4.361-2.529 5.061l-12 4c-.42.141-.848.207-1.266.207z"/><path d="m121.111 161.078c-.418 0-.846-.066-1.266-.207l-12-4c-2.096-.699-3.229-2.965-2.529-5.061.697-2.094 2.955-3.23 5.061-2.529l12 4c2.096.699 3.229 2.965 2.529 5.061-.558 1.676-2.119 2.736-3.795 2.736z"/></g><path d="m169.468 170.721c5.733 9.08 17.741 11.794 26.822 6.061 9.08-5.733 11.794-17.741 6.061-26.822-2.293-3.632-8.93-2.484-15.701.775l-6.394-13.358-12.647 7.985 9.311 11.517c-5.854 4.712-9.744 10.21-7.452 13.842z" fill="#e7d1c4"/><path d="m185.949 183.779c-7.787 0-15.408-3.867-19.863-10.924v.002c-2.875-4.555-.934-10.432 5.311-16.449l-6.898-8.529c-.717-.889-1.021-2.041-.836-3.168.188-1.127.846-2.119 1.811-2.73l12.646-7.986c.967-.605 2.152-.773 3.244-.461 1.098.316 2.008 1.086 2.5 2.117l4.738 9.896c8.115-3.057 14.254-2.279 17.133 2.279 6.9 10.93 3.621 25.438-7.307 32.34-3.877 2.445-8.203 3.611-12.479 3.613zm-12.402-37.435 6.484 8.02c.668.826.979 1.885.865 2.941-.111 1.057-.641 2.023-1.469 2.689-5.59 4.502-6.969 7.969-6.576 8.59v.002c4.543 7.199 14.102 9.354 21.305 4.814 7.199-4.547 9.359-14.104 4.812-21.305-.396-.623-4.115-.869-10.584 2.244-.953.465-2.055.527-3.061.17-1.002-.352-1.822-1.088-2.281-2.047l-4.453-9.303z" fill="#4c241d"/><path d="m171.089 243.062c-1.398-10.647-11.162-18.145-21.81-16.748-8.388 1.101-14.745 7.418-16.414 15.246 10.103 3.94 19.756 7.255 28.858 9.992 5.703-1.93 9.839-4.882 9.366-8.49z" fill="#e7d1c4"/><path d="m161.723 255.553c-.389 0-.775-.057-1.152-.17-9.496-2.855-19.305-6.254-29.158-10.096-1.826-.713-2.867-2.643-2.459-4.561 2.068-9.709 10.027-17.094 19.805-18.379 6.201-.807 12.363.834 17.33 4.65 4.967 3.814 8.15 9.334 8.967 15.543.41 3.119-.609 8.93-12.051 12.801-.415.141-.849.212-1.282.212zm-23.887-16.365c8.033 3.047 16.012 5.783 23.779 8.152 4.275-1.641 5.564-3.322 5.506-3.756 0 0 0 0 0-.002-.535-4.09-2.633-7.727-5.904-10.238-3.275-2.514-7.326-3.602-11.416-3.062-5.301.695-9.791 4.13-11.965 8.906z" fill="#4c241d"/><path d="m179.107 123.076c-.6 0-1.211-.135-1.785-.422-1.977-.988-2.777-3.391-1.789-5.367l8-16c.988-1.973 3.387-2.779 5.367-1.789 1.977.988 2.777 3.391 1.789 5.367l-8 16c-.701 1.403-2.113 2.211-3.582 2.211z" fill="#a9ba5a"/></svg>