<svg id="miso_x5F_soup" enable-background="new 0 0 300 300" height="512" viewBox="0 0 300 300" width="512" xmlns="http://www.w3.org/2000/svg"><circle cx="122" cy="146" fill="#edebdc" r="90"/><path d="m64.25 132.25s21.25 12.75 21.25 46.75c0 28.167 22.833 51 51 51h42.5c28.167 0 51-22.833 51-51 0-34 21.25-46.75 21.25-46.75z" fill="#fff"/><path d="m179 234h-42.5c-30.326 0-55-24.674-55-55 0-31.121-18.535-42.846-19.324-43.33-1.527-.936-2.254-2.777-1.768-4.502.486-1.723 2.051-2.918 3.842-2.918h187c1.797 0 3.375 1.199 3.855 2.932s-.254 3.574-1.797 4.498c-.773.474-19.308 12.199-19.308 43.32 0 30.326-24.672 55-55 55zm-104.254-97.75c6.637 7.496 14.754 21.09 14.754 42.75 0 25.916 21.084 47 47 47h42.5c25.914 0 47-21.084 47-47 0-21.66 8.117-35.254 14.754-42.75z" fill="#4c241d"/><path d="m120 228h76v20h-76z" fill="#fff"/><path d="m196 252h-76c-2.209 0-4-1.791-4-4v-20c0-2.209 1.791-4 4-4h76c2.211 0 4 1.791 4 4v20c0 2.209-1.789 4-4 4zm-72-8h68v-12h-68z" fill="#4c241d"/><path d="m240 268h-156c-13.255 0-24-10.745-24-24h204c0 13.255-10.745 24-24 24z" fill="#6b4f5b"/><path d="m240 272h-156c-15.439 0-28-12.561-28-28 0-2.209 1.791-4 4-4h204c2.211 0 4 1.791 4 4 0 15.439-12.562 28-28 28zm-175.598-24c1.857 9.117 9.939 16 19.598 16h156c9.66 0 17.738-6.883 19.598-16z" fill="#4c241d"/><path d="m256 76h-196c0-13.255 10.745-24 24-24h148c13.255 0 24 10.745 24 24z" fill="#fff"/><g fill="#4c241d"><path d="m256 80h-196c-2.209 0-4-1.791-4-4 0-15.439 12.561-28 28-28h148c15.438 0 28 12.561 28 28 0 2.209-1.789 4-4 4zm-191.598-8h187.195c-1.859-9.117-9.938-16-19.598-16h-147.999c-9.658 0-17.74 6.883-19.598 16z"/><path d="m184 134.738c-2.211 0-4-1.791-4-4v-20.738c0-12.131 9.871-22 22-22s22 9.869 22 22v8.889c0 2.209-1.789 4-4 4s-4-1.791-4-4v-8.889c0-7.719-6.281-14-14-14s-14 6.281-14 14v20.738c0 2.209-1.789 4-4 4z"/><path d="m204 136c-2.211 0-4-1.791-4-4v-12c0-2.209 1.789-4 4-4s4 1.791 4 4v12c0 2.209-1.789 4-4 4z"/><path d="m168 104.334c-2.211 0-4-1.791-4-4v-8.334c0-2.209 1.789-4 4-4s4 1.791 4 4v8.334c0 2.209-1.789 4-4 4z"/><path d="m168 136c-2.211 0-4-1.791-4-4v-17.666c0-2.209 1.789-4 4-4s4 1.791 4 4v17.666c0 2.209-1.789 4-4 4z"/><path d="m144 135.252c-2.211 0-4-1.791-4-4v-6.752c0-11.305-9.195-20.5-20.5-20.5-2.209 0-4-1.791-4-4s1.791-4 4-4c15.715 0 28.5 12.785 28.5 28.5v6.752c0 2.209-1.789 4-4 4z"/></g><path d="m81.669 156c2.26 6.247 3.831 13.826 3.831 23 0 .338.044.664.051 1h144.399c.007-.336.051-.662.051-1 0-9.174 1.571-16.753 3.831-23z" fill="#9dc1e4"/><path d="m229.949 184h-144.398c-2.174 0-3.949-1.734-3.998-3.906-.037-.535-.053-.812-.053-1.094 0-7.771-1.209-15.053-3.592-21.639-.443-1.227-.262-2.592.488-3.658.748-1.068 1.971-1.703 3.273-1.703h152.162c1.305 0 2.527.635 3.273 1.703.75 1.066.93 2.434.488 3.658-2.385 6.584-3.592 13.866-3.592 21.639 0 .281-.016.559-.035.834-.051 2.174-1.844 4.166-4.016 4.166zm-140.504-8h136.605c.223-5.648 1.008-10.979 2.344-16h-141.285c1.348 5.066 2.131 10.42 2.336 16z" fill="#4c241d"/><path d="m170.714 52h-21.428l-9.286-20h40z" fill="#9dc1e4"/><path d="m170.715 56h-21.43c-1.559 0-2.973-.904-3.629-2.316l-9.285-20c-.574-1.238-.479-2.684.258-3.836.734-1.151 2.006-1.848 3.371-1.848h40c1.367 0 2.637.697 3.371 1.848.734 1.152.832 2.598.258 3.836l-9.285 20c-.656 1.412-2.071 2.316-3.629 2.316zm-18.875-8h16.32l5.574-12h-27.469z" fill="#4c241d"/><path d="m120 136c-2.209 0-4-1.791-4-4v-12c0-2.209 1.791-4 4-4s4 1.791 4 4v12c0 2.209-1.791 4-4 4z" fill="#4c241d"/><path d="m100 135.334c-2.209 0-4-1.791-4-4v-25.334c0-3.309-2.691-6-6-6s-6 2.691-6 6v2c0 2.209-1.791 4-4 4s-4-1.791-4-4v-2c0-7.719 6.281-14 14-14s14 6.281 14 14v25.334c0 2.209-1.791 4-4 4z" fill="#4c241d"/></svg>