<svg id="icecream_x5F_cone" enable-background="new 0 0 300 300" height="512" viewBox="0 0 300 300" width="512" xmlns="http://www.w3.org/2000/svg"><circle cx="134" cy="116" fill="#edebdc" r="90"/><path d="m191.912 270h-44.718c-8.238 0-15.259-5.978-16.573-14.111l-9.174-56.783h96.213l-9.174 56.783c-1.314 8.133-8.335 14.111-16.574 14.111z" fill="#bf7e68"/><path d="m191.914 274h-44.719c-10.258 0-18.891-7.348-20.523-17.473l-9.176-56.785c-.188-1.156.145-2.336.902-3.23.762-.891 1.875-1.406 3.047-1.406h96.215c1.172 0 2.285.516 3.047 1.406.758.895 1.09 2.074.902 3.23l-9.176 56.785c-1.632 10.125-10.265 17.473-20.519 17.473zm-65.769-70.895 8.426 52.148c1.004 6.227 6.312 10.746 12.625 10.746h44.719c6.309 0 11.617-4.52 12.621-10.746l8.426-52.148z" fill="#4c241d"/><path d="m209.592 218h-80.077c-11.246 0-20.761-8.311-22.274-19.454l-6.05-44.546h136.723l-6.049 44.546c-1.512 11.143-11.027 19.454-22.273 19.454z" fill="#bf7e68"/><g fill="#4c241d"><path d="m209.594 222h-80.078c-13.184 0-24.465-9.852-26.242-22.914l-6.047-44.547c-.152-1.145.191-2.301.953-3.172.758-.867 1.855-1.367 3.012-1.367h136.723c1.156 0 2.254.5 3.012 1.367.762.871 1.105 2.027.953 3.172l-6.047 44.547c-1.778 13.062-13.06 22.914-26.239 22.914zm-103.824-64 5.434 40.008c1.238 9.117 9.113 15.992 18.312 15.992h80.078c9.199 0 17.07-6.875 18.309-15.992l5.433-40.008z"/><path d="m200.781 219.973c-.238 0-.484-.02-.727-.066-2.172-.398-3.609-2.484-3.211-4.656l11.027-59.965c.402-2.172 2.496-3.621 4.656-3.211 2.172.398 3.609 2.484 3.211 4.656l-11.027 59.965c-.355 1.929-2.034 3.277-3.929 3.277z"/><path d="m177.723 220.488c-.141 0-.285-.008-.43-.023-2.199-.234-3.789-2.207-3.551-4.402l6.281-58.488c.234-2.195 2.18-3.805 4.402-3.551 2.199.234 3.789 2.207 3.551 4.402l-6.281 58.488c-.218 2.051-1.953 3.574-3.972 3.574z"/></g><path d="m239.83 154.34h-139.66c-6.721 0-12.17-5.449-12.17-12.17 0-6.721 5.449-12.17 12.17-12.17h139.66c6.721 0 12.17 5.449 12.17 12.17 0 6.722-5.449 12.17-12.17 12.17z" fill="#bf7e68"/><path d="m239.828 158.34h-139.656c-8.918 0-16.172-7.254-16.172-16.168 0-8.918 7.254-16.172 16.172-16.172h139.656c8.918 0 16.172 7.254 16.172 16.172 0 8.914-7.254 16.168-16.172 16.168zm-139.656-24.34c-4.508 0-8.172 3.664-8.172 8.172 0 4.504 3.664 8.168 8.172 8.168h139.656c4.508 0 8.172-3.664 8.172-8.168 0-4.508-3.664-8.172-8.172-8.172z" fill="#4c241d"/><path d="m235.191 111.771c0-37.429-29.997-67.771-67-67.771s-67 30.342-67 67.771c0 6.325.921 12.421 2.523 18.229h60.286v24c0 6.627 5.373 12 12 12s12-5.373 12-12v36c0 6.627 5.373 12 12 12s12-5.373 12-12v-60h20.668c1.603-5.808 2.523-11.904 2.523-18.229z" fill="#ffec95"/><path d="m200 206c-8.824 0-16-7.176-16-16v-22.148c-2.355 1.367-5.09 2.148-8 2.148-8.824 0-16-7.176-16-16v-20h-56.285c-1.801 0-3.379-1.203-3.855-2.938-1.77-6.418-2.668-12.91-2.668-19.293 0-39.574 31.852-71.77 71-71.77s71 32.195 71 71.77c0 6.383-.898 12.875-2.668 19.293-.477 1.734-2.055 2.938-3.855 2.938h-16.669v56c0 8.824-7.176 16-16 16zm-8-52v36c0 4.41 3.59 8 8 8s8-3.59 8-8v-60c0-2.211 1.789-4 4-4h17.551c1.09-4.758 1.641-9.531 1.641-14.23 0-35.164-28.262-63.77-63-63.77s-63 28.605-63 63.77c0 4.699.551 9.473 1.641 14.23h57.167c2.211 0 4 1.789 4 4v24c0 4.41 3.59 8 8 8s8-3.59 8-8c0-2.211 1.789-4 4-4s4 1.789 4 4z" fill="#4c241d"/><path d="m204 94c-1.023 0-2.047-.391-2.828-1.172l-8-8c-1.562-1.562-1.562-4.094 0-5.656s4.094-1.562 5.656 0l8 8c1.562 1.562 1.562 4.094 0 5.656-.781.781-1.805 1.172-2.828 1.172z" fill="#bf7e68"/><path d="m184 118c-1.023 0-2.047-.391-2.828-1.172-1.562-1.562-1.562-4.094 0-5.656l8-8c1.562-1.562 4.094-1.562 5.656 0s1.562 4.094 0 5.656l-8 8c-.781.781-1.805 1.172-2.828 1.172z" fill="#4c241d"/><path d="m168 74c-1.023 0-2.047-.391-2.828-1.172-1.562-1.562-1.562-4.094 0-5.656l8-8c1.562-1.562 4.094-1.562 5.656 0s1.562 4.094 0 5.656l-8 8c-.781.781-1.805 1.172-2.828 1.172z" fill="#4c241d"/><path d="m147.996 82c-.762 0-1.531-.219-2.215-.672l-12-8c-1.84-1.227-2.336-3.707-1.109-5.547 1.223-1.84 3.699-2.332 5.547-1.109l12 8c1.84 1.227 2.336 3.707 1.109 5.547-.769 1.156-2.039 1.781-3.332 1.781z" fill="#fc8c29"/><path d="m168.488 107.637c-2.051 0-3.801-1.57-3.98-3.652l-.984-11.273c-.191-2.199 1.438-4.141 3.637-4.332 2.195-.215 4.145 1.438 4.332 3.637l.984 11.273c.191 2.199-1.438 4.141-3.637 4.332-.117.011-.235.015-.352.015z" fill="#fc8c29"/><path d="m119.242 113.051c-1.316 0-2.609-.648-3.371-1.844-1.191-1.859-.652-4.332 1.211-5.523l9.523-6.102c1.859-1.199 4.332-.656 5.523 1.211 1.191 1.859.652 4.332-1.211 5.523l-9.523 6.102c-.667.43-1.414.633-2.152.633z" fill="#4c241d"/><path d="m219.559 118.402c-1.168 0-2.324-.508-3.117-1.488l-7.109-8.805c-1.387-1.719-1.117-4.234.602-5.625 1.723-1.391 4.234-1.117 5.625.602l7.109 8.805c1.387 1.719 1.117 4.234-.602 5.625-.739.597-1.629.886-2.508.886z" fill="#fc8c29"/><path d="m155.559 118.402c-1.168 0-2.324-.508-3.117-1.488l-7.109-8.805c-1.387-1.719-1.117-4.234.602-5.625s4.234-1.117 5.625.602l7.109 8.805c1.387 1.719 1.117 4.234-.602 5.625-.739.597-1.629.886-2.508.886z" fill="#bf7e68"/><path d="m139.219 219.973c-1.895 0-3.574-1.348-3.93-3.277l-11.027-59.965c-.398-2.172 1.039-4.258 3.211-4.656 2.18-.406 4.258 1.039 4.656 3.211l11.027 59.965c.398 2.172-1.039 4.258-3.211 4.656-.242.046-.488.066-.726.066z" fill="#4c241d"/><path d="m162.277 220.488c-2.02 0-3.754-1.52-3.973-3.574l-6.281-58.488c-.238-2.195 1.352-4.168 3.551-4.402 2.227-.234 4.172 1.355 4.402 3.551l6.281 58.488c.238 2.195-1.352 4.168-3.551 4.402-.144.015-.288.023-.429.023z" fill="#4c241d"/></svg>